<?xml version="1.0" encoding="UTF-8"?>
<svg xmlns="http://www.w3.org/2000/svg" xmlns:xlink="http://www.w3.org/1999/xlink" style="display:none">
  <symbol id="dp-icon-direction-arrow-up" viewBox="0 0 16 16" fill="none" stroke="currentColor" stroke-width="1.5" stroke-linecap="round" stroke-linejoin="round"><path d="M8 12.5V3.5M5 6.5 8 3.5 11 6.5"/></symbol>
  <symbol id="dp-icon-direction-arrow-down" viewBox="0 0 16 16" fill="none" stroke="currentColor" stroke-width="1.5" stroke-linecap="round" stroke-linejoin="round"><path d="M8 3.5v9M5 9.5 8 12.5 11 9.5"/></symbol>
  <symbol id="dp-icon-direction-arrow-left" viewBox="0 0 16 16" fill="none" stroke="currentColor" stroke-width="1.5" stroke-linecap="round" stroke-linejoin="round"><path d="M12.5 8H3.5M6.5 5 3.5 8 6.5 11"/></symbol>
  <symbol id="dp-icon-direction-arrow-right" viewBox="0 0 16 16" fill="none" stroke="currentColor" stroke-width="1.5" stroke-linecap="round" stroke-linejoin="round"><path d="M3.5 8h9M9.5 5 12.5 8 9.5 11"/></symbol>
  <symbol id="dp-icon-direction-chevron-up" viewBox="0 0 16 16" fill="none" stroke="currentColor" stroke-width="1.5" stroke-linecap="round" stroke-linejoin="round"><path d="m4 10 4-4 4 4"/></symbol>
  <symbol id="dp-icon-direction-chevron-down" viewBox="0 0 16 16" fill="none" stroke="currentColor" stroke-width="1.5" stroke-linecap="round" stroke-linejoin="round"><path d="m4 6 4 4 4-4"/></symbol>
  <symbol id="dp-icon-direction-chevron-left" viewBox="0 0 16 16" fill="none" stroke="currentColor" stroke-width="1.5" stroke-linecap="round" stroke-linejoin="round"><path d="m10 4-4 4 4 4"/></symbol>
  <symbol id="dp-icon-direction-chevron-right" viewBox="0 0 16 16" fill="none" stroke="currentColor" stroke-width="1.5" stroke-linecap="round" stroke-linejoin="round"><path d="m6 4 4 4-4 4"/></symbol>
  <symbol id="dp-icon-direction-double-left" viewBox="0 0 16 16" fill="none" stroke="currentColor" stroke-width="1.5" stroke-linecap="round" stroke-linejoin="round"><path d="m8 4-4 4 4 4M12 4l-4 4 4 4"/></symbol>
  <symbol id="dp-icon-direction-double-right" viewBox="0 0 16 16" fill="none" stroke="currentColor" stroke-width="1.5" stroke-linecap="round" stroke-linejoin="round"><path d="m4 4 4 4-4 4M8 4l4 4-4 4"/></symbol>
  <symbol id="dp-icon-direction-caret-up" viewBox="0 0 16 16" fill="none" stroke="currentColor" stroke-width="1.5" stroke-linecap="round" stroke-linejoin="round"><path d="m4.5 10 3.5-5 3.5 5z" fill="currentColor" stroke="none"/></symbol>
  <symbol id="dp-icon-direction-caret-down" viewBox="0 0 16 16" fill="none" stroke="currentColor" stroke-width="1.5" stroke-linecap="round" stroke-linejoin="round"><path d="m4.5 6 3.5 5 3.5-5z" fill="currentColor" stroke="none"/></symbol>
  <symbol id="dp-icon-direction-expand" viewBox="0 0 16 16" fill="none" stroke="currentColor" stroke-width="1.5" stroke-linecap="round" stroke-linejoin="round"><path d="M9.5 3.5H12.5V6.5M6.5 12.5H3.5V9.5M12.5 3.5 9 7M3.5 12.5 7 9"/></symbol>
  <symbol id="dp-icon-direction-collapse" viewBox="0 0 16 16" fill="none" stroke="currentColor" stroke-width="1.5" stroke-linecap="round" stroke-linejoin="round"><path d="M12.5 6.5V3.5H9.5M3.5 9.5v3h3M12.5 3.5 9 7M3.5 12.5 7 9"/></symbol>
  <symbol id="dp-icon-direction-enter" viewBox="0 0 16 16" fill="none" stroke="currentColor" stroke-width="1.5" stroke-linecap="round" stroke-linejoin="round"><path d="M4 4v5.5h7M9 7l2.5 2.5L9 12"/></symbol>
  <symbol id="dp-icon-direction-login" viewBox="0 0 16 16" fill="none" stroke="currentColor" stroke-width="1.5" stroke-linecap="round" stroke-linejoin="round"><path d="M7 3.5h5.5v9H7M9.5 8H3M7 5.5 9.5 8 7 10.5"/></symbol>
  <symbol id="dp-icon-direction-logout" viewBox="0 0 16 16" fill="none" stroke="currentColor" stroke-width="1.5" stroke-linecap="round" stroke-linejoin="round"><path d="M9 3.5H3.5v9H9M6.5 8H13M10.5 5.5 13 8l-2.5 2.5"/></symbol>
  <symbol id="dp-icon-direction-swap" viewBox="0 0 16 16" fill="none" stroke="currentColor" stroke-width="1.5" stroke-linecap="round" stroke-linejoin="round"><path d="M5 5.5h6.5M9.5 3 12 5.5 9.5 8M11 10.5H4.5M6.5 8 4 10.5 6.5 13"/></symbol>
  <symbol id="dp-icon-direction-rollback" viewBox="0 0 16 16" fill="none" stroke="currentColor" stroke-width="1.5" stroke-linecap="round" stroke-linejoin="round"><path d="M5 7.5H11a2.5 2.5 0 0 1 0 5H9M5 7.5 7.5 5M5 7.5 7.5 10"/></symbol>
  <symbol id="dp-icon-direction-retweet" viewBox="0 0 16 16" fill="none" stroke="currentColor" stroke-width="1.5" stroke-linecap="round" stroke-linejoin="round"><path d="M4.5 6.5h7l-2-2M11.5 9.5h-7l2 2"/></symbol>
  <symbol id="dp-icon-direction-fullscreen" viewBox="0 0 16 16" fill="none" stroke="currentColor" stroke-width="1.5" stroke-linecap="round" stroke-linejoin="round"><path d="M3.5 6V3.5H6M10 3.5h2.5V6M12.5 10v2.5H10M6 12.5H3.5V10"/></symbol>
  <symbol id="dp-icon-direction-fullscreen-exit" viewBox="0 0 16 16" fill="none" stroke="currentColor" stroke-width="1.5" stroke-linecap="round" stroke-linejoin="round"><path d="M6 3.5V6H3.5M12.5 6H10V3.5M10 12.5V10h2.5M3.5 10H6v2.5"/></symbol>
  <symbol id="dp-icon-direction-menu-fold" viewBox="0 0 16 16" fill="none" stroke="currentColor" stroke-width="1.5" stroke-linecap="round" stroke-linejoin="round"><path d="M2.5 4h11M2.5 8h7M2.5 12h11M12 6.5 10 8l2 1.5"/></symbol>
  <symbol id="dp-icon-direction-menu-unfold" viewBox="0 0 16 16" fill="none" stroke="currentColor" stroke-width="1.5" stroke-linecap="round" stroke-linejoin="round"><path d="M2.5 4h11M6.5 8h7M2.5 12h11M4 6.5 6 8 4 9.5"/></symbol>
  <symbol id="dp-icon-direction-to-top" viewBox="0 0 16 16" fill="none" stroke="currentColor" stroke-width="1.5" stroke-linecap="round" stroke-linejoin="round"><path d="M8 12.5V5M5 7.5 8 4.5 11 7.5M3.5 3h9"/></symbol>
  <symbol id="dp-icon-direction-vertical-align" viewBox="0 0 16 16" fill="none" stroke="currentColor" stroke-width="1.5" stroke-linecap="round" stroke-linejoin="round"><path d="M3 3.5h10M8 6v5M5.5 9.5 8 12l2.5-2.5M3 13.5h10"/></symbol>
  <symbol id="dp-icon-status-check" viewBox="0 0 16 16" fill="none" stroke="currentColor" stroke-width="1.5" stroke-linecap="round" stroke-linejoin="round"><path d="m3.5 8 3 3 6-6.5"/></symbol>
  <symbol id="dp-icon-status-check-circle" viewBox="0 0 16 16" fill="none" stroke="currentColor" stroke-width="1.5" stroke-linecap="round" stroke-linejoin="round"><circle cx="8" cy="8" r="5.5"/><path d="m5.5 8 1.8 1.8 3.4-3.6"/></symbol>
  <symbol id="dp-icon-status-close" viewBox="0 0 16 16" fill="none" stroke="currentColor" stroke-width="1.5" stroke-linecap="round" stroke-linejoin="round"><path d="m4.5 4.5 7 7M11.5 4.5l-7 7"/></symbol>
  <symbol id="dp-icon-status-close-circle" viewBox="0 0 16 16" fill="none" stroke="currentColor" stroke-width="1.5" stroke-linecap="round" stroke-linejoin="round"><circle cx="8" cy="8" r="5.5"/><path d="m6 6 4 4M10 6l-4 4"/></symbol>
  <symbol id="dp-icon-status-plus" viewBox="0 0 16 16" fill="none" stroke="currentColor" stroke-width="1.5" stroke-linecap="round" stroke-linejoin="round"><path d="M8 3.5v9M3.5 8h9"/></symbol>
  <symbol id="dp-icon-status-plus-circle" viewBox="0 0 16 16" fill="none" stroke="currentColor" stroke-width="1.5" stroke-linecap="round" stroke-linejoin="round"><circle cx="8" cy="8" r="5.5"/><path d="M8 5.5v5M5.5 8h5"/></symbol>
  <symbol id="dp-icon-status-minus" viewBox="0 0 16 16" fill="none" stroke="currentColor" stroke-width="1.5" stroke-linecap="round" stroke-linejoin="round"><path d="M3.5 8h9"/></symbol>
  <symbol id="dp-icon-status-minus-circle" viewBox="0 0 16 16" fill="none" stroke="currentColor" stroke-width="1.5" stroke-linecap="round" stroke-linejoin="round"><circle cx="8" cy="8" r="5.5"/><path d="M5.5 8h5"/></symbol>
  <symbol id="dp-icon-status-question" viewBox="0 0 16 16" fill="none" stroke="currentColor" stroke-width="1.5" stroke-linecap="round" stroke-linejoin="round"><path d="M6 6a2 2 0 1 1 2.5 1.9c-.7.3-1 .8-1 1.6V10M8 12h.01"/></symbol>
  <symbol id="dp-icon-status-question-circle" viewBox="0 0 16 16" fill="none" stroke="currentColor" stroke-width="1.5" stroke-linecap="round" stroke-linejoin="round"><circle cx="8" cy="8" r="5.5"/><path d="M6.2 6.2a1.8 1.8 0 1 1 2.3 1.7c-.6.3-.9.7-.9 1.4V10M8 11.8h.01"/></symbol>
  <symbol id="dp-icon-status-info" viewBox="0 0 16 16" fill="none" stroke="currentColor" stroke-width="1.5" stroke-linecap="round" stroke-linejoin="round"><circle cx="8" cy="8" r="5.5"/><path d="M8 7.5V11M8 5.2h.01"/></symbol>
  <symbol id="dp-icon-status-warning" viewBox="0 0 16 16" fill="none" stroke="currentColor" stroke-width="1.5" stroke-linecap="round" stroke-linejoin="round"><path d="m8 2.5 5.5 10H2.5z"/><path d="M8 6.5v2.5M8 11h.01"/></symbol>
  <symbol id="dp-icon-status-error" viewBox="0 0 16 16" fill="none" stroke="currentColor" stroke-width="1.5" stroke-linecap="round" stroke-linejoin="round"><circle cx="8" cy="8" r="5.5"/><path d="m6 6 4 4M10 6l-4 4"/></symbol>
  <symbol id="dp-icon-status-success" viewBox="0 0 16 16" fill="none" stroke="currentColor" stroke-width="1.5" stroke-linecap="round" stroke-linejoin="round"><circle cx="8" cy="8" r="5.5"/><path d="m5.5 8 1.8 1.8 3.4-3.6"/></symbol>
  <symbol id="dp-icon-status-stop" viewBox="0 0 16 16" fill="none" stroke="currentColor" stroke-width="1.5" stroke-linecap="round" stroke-linejoin="round"><circle cx="8" cy="8" r="5.5"/><path d="M5.5 8h5"/></symbol>
  <symbol id="dp-icon-status-ban" viewBox="0 0 16 16" fill="none" stroke="currentColor" stroke-width="1.5" stroke-linecap="round" stroke-linejoin="round"><circle cx="8" cy="8" r="5.5"/><path d="m4.2 4.2 7.6 7.6"/></symbol>
  <symbol id="dp-icon-status-loading" viewBox="0 0 16 16" fill="none" stroke="currentColor" stroke-width="1.5" stroke-linecap="round" stroke-linejoin="round"><path d="M8 2.5a5.5 5.5 0 1 1-4.6 2.5"/></symbol>
  <symbol id="dp-icon-status-clock" viewBox="0 0 16 16" fill="none" stroke="currentColor" stroke-width="1.5" stroke-linecap="round" stroke-linejoin="round"><circle cx="8" cy="8" r="5.5"/><path d="M8 5v3.5l2.5 1.5"/></symbol>
  <symbol id="dp-icon-status-issues-close" viewBox="0 0 16 16" fill="none" stroke="currentColor" stroke-width="1.5" stroke-linecap="round" stroke-linejoin="round"><circle cx="8" cy="8" r="5.5"/><path d="m5.5 8 1.8 1.8L12 5"/></symbol>
  <symbol id="dp-icon-status-exclamation" viewBox="0 0 16 16" fill="none" stroke="currentColor" stroke-width="1.5" stroke-linecap="round" stroke-linejoin="round"><path d="M8 3.5v6M8 12h.01"/></symbol>
  <symbol id="dp-icon-status-exclamation-circle" viewBox="0 0 16 16" fill="none" stroke="currentColor" stroke-width="1.5" stroke-linecap="round" stroke-linejoin="round"><circle cx="8" cy="8" r="5.5"/><path d="M8 5v3.5M8 11h.01"/></symbol>
  <symbol id="dp-icon-editor-edit" viewBox="0 0 16 16" fill="none" stroke="currentColor" stroke-width="1.5" stroke-linecap="round" stroke-linejoin="round"><path d="M9.5 3.5 12.5 6.5 6 13H3v-3z"/><path d="m8 5 3 3"/></symbol>
  <symbol id="dp-icon-editor-form" viewBox="0 0 16 16" fill="none" stroke="currentColor" stroke-width="1.5" stroke-linecap="round" stroke-linejoin="round"><rect x="3" y="2.5" width="10" height="11" rx="1"/><path d="M5.5 6h5M5.5 8.5h5M5.5 11h3"/></symbol>
  <symbol id="dp-icon-editor-copy" viewBox="0 0 16 16" fill="none" stroke="currentColor" stroke-width="1.5" stroke-linecap="round" stroke-linejoin="round"><rect x="5.5" y="5.5" width="7" height="8" rx="1"/><path d="M3.5 10.5V3.5h7"/></symbol>
  <symbol id="dp-icon-editor-delete" viewBox="0 0 16 16" fill="none" stroke="currentColor" stroke-width="1.5" stroke-linecap="round" stroke-linejoin="round"><path d="M3.5 5h9M6 5V3.5h4V5M5.5 5v7.5h5V5"/></symbol>
  <symbol id="dp-icon-editor-scissor" viewBox="0 0 16 16" fill="none" stroke="currentColor" stroke-width="1.5" stroke-linecap="round" stroke-linejoin="round"><circle cx="4.5" cy="4.5" r="1.8"/><circle cx="4.5" cy="11.5" r="1.8"/><path d="m6 5.5 7-2.5M6 10.5l7 2.5M12.5 3.5 6.5 8"/></symbol>
  <symbol id="dp-icon-editor-snippets" viewBox="0 0 16 16" fill="none" stroke="currentColor" stroke-width="1.5" stroke-linecap="round" stroke-linejoin="round"><rect x="4" y="4" width="6.5" height="8" rx="1"/><path d="M7.5 2.5h5v8"/></symbol>
  <symbol id="dp-icon-editor-highlight" viewBox="0 0 16 16" fill="none" stroke="currentColor" stroke-width="1.5" stroke-linecap="round" stroke-linejoin="round"><path d="M4 12.5h8M5.5 10.5 8 3.5l2.5 7"/><path d="M6.2 8h3.6"/></symbol>
  <symbol id="dp-icon-editor-align-left" viewBox="0 0 16 16" fill="none" stroke="currentColor" stroke-width="1.5" stroke-linecap="round" stroke-linejoin="round"><path d="M2.5 4h11M2.5 8h7M2.5 12h9"/></symbol>
  <symbol id="dp-icon-editor-align-center" viewBox="0 0 16 16" fill="none" stroke="currentColor" stroke-width="1.5" stroke-linecap="round" stroke-linejoin="round"><path d="M2.5 4h11M4.5 8h7M3.5 12h9"/></symbol>
  <symbol id="dp-icon-editor-align-right" viewBox="0 0 16 16" fill="none" stroke="currentColor" stroke-width="1.5" stroke-linecap="round" stroke-linejoin="round"><path d="M2.5 4h11M6.5 8h7M4.5 12h9"/></symbol>
  <symbol id="dp-icon-editor-bold" viewBox="0 0 16 16" fill="none" stroke="currentColor" stroke-width="1.5" stroke-linecap="round" stroke-linejoin="round"><path d="M5 3.5h3.2a2.3 2.3 0 0 1 0 4.6H5zm0 4.6h3.6A2.4 2.4 0 0 1 8.6 12.5H5z"/></symbol>
  <symbol id="dp-icon-editor-italic" viewBox="0 0 16 16" fill="none" stroke="currentColor" stroke-width="1.5" stroke-linecap="round" stroke-linejoin="round"><path d="M7 3.5h5M4 12.5h5M9.5 3.5 6.5 12.5"/></symbol>
  <symbol id="dp-icon-editor-underline" viewBox="0 0 16 16" fill="none" stroke="currentColor" stroke-width="1.5" stroke-linecap="round" stroke-linejoin="round"><path d="M5 3.5v5a3 3 0 0 0 6 0v-5M3.5 13h9"/></symbol>
  <symbol id="dp-icon-editor-ordered-list" viewBox="0 0 16 16" fill="none" stroke="currentColor" stroke-width="1.5" stroke-linecap="round" stroke-linejoin="round"><path d="M7 4h6.5M7 8h6.5M7 12h6.5M3.5 4H5M3.5 8H5M3.2 11.2 4.5 10v3"/></symbol>
  <symbol id="dp-icon-editor-unordered-list" viewBox="0 0 16 16" fill="none" stroke="currentColor" stroke-width="1.5" stroke-linecap="round" stroke-linejoin="round"><path d="M7 4h6.5M7 8h6.5M7 12h6.5"/><circle cx="4" cy="4" r=".8" fill="currentColor" stroke="none"/><circle cx="4" cy="8" r=".8" fill="currentColor" stroke="none"/><circle cx="4" cy="12" r=".8" fill="currentColor" stroke="none"/></symbol>
  <symbol id="dp-icon-editor-indent" viewBox="0 0 16 16" fill="none" stroke="currentColor" stroke-width="1.5" stroke-linecap="round" stroke-linejoin="round"><path d="M7 4h6.5M9 8h4.5M7 12h6.5M3.5 6.5 5.5 8l-2 1.5"/></symbol>
  <symbol id="dp-icon-editor-outdent" viewBox="0 0 16 16" fill="none" stroke="currentColor" stroke-width="1.5" stroke-linecap="round" stroke-linejoin="round"><path d="M7 4h6.5M9 8h4.5M7 12h6.5M5.5 6.5 3.5 8l2 1.5"/></symbol>
  <symbol id="dp-icon-editor-quote" viewBox="0 0 16 16" fill="none" stroke="currentColor" stroke-width="1.5" stroke-linecap="round" stroke-linejoin="round"><path d="M4 7.5h3V11H4.5A1.5 1.5 0 0 1 3 9.5V7.5h1zm5 0h3V11H9.5A1.5 1.5 0 0 1 8 9.5V7.5h1z"/></symbol>
  <symbol id="dp-icon-editor-font-size" viewBox="0 0 16 16" fill="none" stroke="currentColor" stroke-width="1.5" stroke-linecap="round" stroke-linejoin="round"><path d="m4 12 2.5-7h1.2L10 12M5 10h3.5M11 12V6h2.2"/></symbol>
  <symbol id="dp-icon-data-file" viewBox="0 0 16 16" fill="none" stroke="currentColor" stroke-width="1.5" stroke-linecap="round" stroke-linejoin="round"><path d="M4.5 2.5h5L12 5v8.5H4.5z"/><path d="M9.5 2.5V5H12"/></symbol>
  <symbol id="dp-icon-data-file-add" viewBox="0 0 16 16" fill="none" stroke="currentColor" stroke-width="1.5" stroke-linecap="round" stroke-linejoin="round"><path d="M4.5 2.5h5L12 5v3"/><path d="M9.5 2.5V5H12M4.5 13.5V8"/><path d="M10 10v4M8 12h4"/></symbol>
  <symbol id="dp-icon-data-file-text" viewBox="0 0 16 16" fill="none" stroke="currentColor" stroke-width="1.5" stroke-linecap="round" stroke-linejoin="round"><path d="M4.5 2.5h5L12 5v8.5H4.5z"/><path d="M9.5 2.5V5H12M6 8h4M6 10.5h4M6 13h2.5"/></symbol>
  <symbol id="dp-icon-data-folder" viewBox="0 0 16 16" fill="none" stroke="currentColor" stroke-width="1.5" stroke-linecap="round" stroke-linejoin="round"><path d="M2.5 5.5V4a1 1 0 0 1 1-1H6l1.5 1.5H12.5a1 1 0 0 1 1 1v7a1 1 0 0 1-1 1h-10a1 1 0 0 1-1-1v-6.5z"/></symbol>
  <symbol id="dp-icon-data-folder-open" viewBox="0 0 16 16" fill="none" stroke="currentColor" stroke-width="1.5" stroke-linecap="round" stroke-linejoin="round"><path d="M2.5 6V4a1 1 0 0 1 1-1H6l1.2 1.2H10"/><path d="M2.8 6.5h10.2l-1.2 6H4z"/></symbol>
  <symbol id="dp-icon-data-table" viewBox="0 0 16 16" fill="none" stroke="currentColor" stroke-width="1.5" stroke-linecap="round" stroke-linejoin="round"><rect x="2.5" y="3" width="11" height="10" rx="1"/><path d="M2.5 6.5h11M2.5 10h11M6.5 6.5v6.5"/></symbol>
  <symbol id="dp-icon-data-chart" viewBox="0 0 16 16" fill="none" stroke="currentColor" stroke-width="1.5" stroke-linecap="round" stroke-linejoin="round"><path d="M3 12.5V4M3 12.5h10"/><path d="m3 9.5 3-3 2.5 2.5 4-4.5"/></symbol>
  <symbol id="dp-icon-data-bar-chart" viewBox="0 0 16 16" fill="none" stroke="currentColor" stroke-width="1.5" stroke-linecap="round" stroke-linejoin="round"><path d="M3 12.5V4M3 12.5h10"/><path d="M5.5 12.5V8M8 12.5V5.5M10.5 12.5V9"/></symbol>
  <symbol id="dp-icon-data-pie-chart" viewBox="0 0 16 16" fill="none" stroke="currentColor" stroke-width="1.5" stroke-linecap="round" stroke-linejoin="round"><path d="M8 3a5 5 0 1 1 0 10"/><path d="M8 3v5l4.3 2.5"/></symbol>
  <symbol id="dp-icon-data-line-chart" viewBox="0 0 16 16" fill="none" stroke="currentColor" stroke-width="1.5" stroke-linecap="round" stroke-linejoin="round"><path d="M3 12.5V4M3 12.5h10"/><path d="m4 10 2.5-3 2 2L12 5"/></symbol>
  <symbol id="dp-icon-data-database" viewBox="0 0 16 16" fill="none" stroke="currentColor" stroke-width="1.5" stroke-linecap="round" stroke-linejoin="round"><ellipse cx="8" cy="4" rx="4.5" ry="1.5"/><path d="M3.5 4v4c0 .8 2 1.5 4.5 1.5s4.5-.7 4.5-1.5V4"/><path d="M3.5 8v4c0 .8 2 1.5 4.5 1.5s4.5-.7 4.5-1.5V8"/></symbol>
  <symbol id="dp-icon-data-cloud" viewBox="0 0 16 16" fill="none" stroke="currentColor" stroke-width="1.5" stroke-linecap="round" stroke-linejoin="round"><path d="M5 11.5h6.5A2.5 2.5 0 0 0 12 6.8 3.5 3.5 0 0 0 5.2 6 2.5 2.5 0 0 0 5 11.5z"/></symbol>
  <symbol id="dp-icon-data-cloud-upload" viewBox="0 0 16 16" fill="none" stroke="currentColor" stroke-width="1.5" stroke-linecap="round" stroke-linejoin="round"><path d="M5 11.5h6.5A2.5 2.5 0 0 0 12 6.8 3.5 3.5 0 0 0 5.2 6 2.5 2.5 0 0 0 5 11.5z"/><path d="M8 11V7.5M6.5 8.5 8 7l1.5 1.5"/></symbol>
  <symbol id="dp-icon-data-cloud-download" viewBox="0 0 16 16" fill="none" stroke="currentColor" stroke-width="1.5" stroke-linecap="round" stroke-linejoin="round"><path d="M5 10h6.5A2.5 2.5 0 0 0 12 5.3 3.5 3.5 0 0 0 5.2 4.5 2.5 2.5 0 0 0 5 10z"/><path d="M8 8v5M6.5 11.5 8 13l1.5-1.5"/></symbol>
  <symbol id="dp-icon-data-code" viewBox="0 0 16 16" fill="none" stroke="currentColor" stroke-width="1.5" stroke-linecap="round" stroke-linejoin="round"><path d="m5 5-2.5 3L5 11M11 5l2.5 3L11 11M9 3.5 7 12.5"/></symbol>
  <symbol id="dp-icon-data-api" viewBox="0 0 16 16" fill="none" stroke="currentColor" stroke-width="1.5" stroke-linecap="round" stroke-linejoin="round"><rect x="2.5" y="5" width="5" height="6" rx="1"/><rect x="8.5" y="5" width="5" height="6" rx="1"/><path d="M7.5 8h1"/></symbol>
  <symbol id="dp-icon-data-bug" viewBox="0 0 16 16" fill="none" stroke="currentColor" stroke-width="1.5" stroke-linecap="round" stroke-linejoin="round"><path d="M6 6.5a2 2 0 0 1 4 0v5H6z"/><path d="M4 7.5h2M10 7.5h2M4 10.5h2M10 10.5h2M5 4.5 6.5 6M11 4.5 9.5 6M8 11.5v2"/></symbol>
  <symbol id="dp-icon-data-image" viewBox="0 0 16 16" fill="none" stroke="currentColor" stroke-width="1.5" stroke-linecap="round" stroke-linejoin="round"><rect x="2.5" y="3.5" width="11" height="9" rx="1"/><circle cx="6" cy="7" r="1"/><path d="m4.5 11.5 2.5-2.5L9 11l2.5-3 2 3"/></symbol>
  <symbol id="dp-icon-data-video" viewBox="0 0 16 16" fill="none" stroke="currentColor" stroke-width="1.5" stroke-linecap="round" stroke-linejoin="round"><rect x="2.5" y="4" width="8" height="8" rx="1"/><path d="m10.5 7 3-1.5v5L10.5 9z"/></symbol>
  <symbol id="dp-icon-data-audio" viewBox="0 0 16 16" fill="none" stroke="currentColor" stroke-width="1.5" stroke-linecap="round" stroke-linejoin="round"><path d="M5 6v4a1.5 1.5 0 0 0 3 0V4l4-1v5"/><circle cx="12" cy="9.5" r="1.5"/><circle cx="6.5" cy="11.5" r="1.5"/></symbol>
  <symbol id="dp-icon-data-inbox" viewBox="0 0 16 16" fill="none" stroke="currentColor" stroke-width="1.5" stroke-linecap="round" stroke-linejoin="round"><path d="M2.5 5.5 4 3h8l1.5 2.5V12a1 1 0 0 1-1 1h-9a1 1 0 0 1-1-1z"/><path d="M2.5 5.5H6l1 2h2l1-2h3.5"/></symbol>
  <symbol id="dp-icon-data-container" viewBox="0 0 16 16" fill="none" stroke="currentColor" stroke-width="1.5" stroke-linecap="round" stroke-linejoin="round"><rect x="3" y="3" width="10" height="10" rx="1"/><path d="M3 6.5h10M8 6.5v6.5"/></symbol>
  <symbol id="dp-icon-data-cluster" viewBox="0 0 16 16" fill="none" stroke="currentColor" stroke-width="1.5" stroke-linecap="round" stroke-linejoin="round"><circle cx="4.5" cy="5" r="1.5"/><circle cx="11.5" cy="5" r="1.5"/><circle cx="8" cy="11" r="1.5"/><path d="m5.7 5.8 1.4 3.4M10.3 5.8 8.9 9.2"/></symbol>
  <symbol id="dp-icon-nav-home" viewBox="0 0 16 16" fill="none" stroke="currentColor" stroke-width="1.5" stroke-linecap="round" stroke-linejoin="round"><path d="M2.5 7.5 8 3l5.5 4.5"/><path d="M4 7v5.5h8V7"/></symbol>
  <symbol id="dp-icon-nav-dashboard" viewBox="0 0 16 16" fill="none" stroke="currentColor" stroke-width="1.5" stroke-linecap="round" stroke-linejoin="round"><rect x="2.5" y="2.5" width="5" height="5" rx="1"/><rect x="8.5" y="2.5" width="5" height="3" rx="1"/><rect x="2.5" y="9" width="5" height="4.5" rx="1"/><rect x="8.5" y="7" width="5" height="6.5" rx="1"/></symbol>
  <symbol id="dp-icon-nav-apps" viewBox="0 0 16 16" fill="none" stroke="currentColor" stroke-width="1.5" stroke-linecap="round" stroke-linejoin="round"><rect x="2.5" y="2.5" width="4" height="4" rx=".8"/><rect x="9.5" y="2.5" width="4" height="4" rx=".8"/><rect x="2.5" y="9.5" width="4" height="4" rx=".8"/><rect x="9.5" y="9.5" width="4" height="4" rx=".8"/></symbol>
  <symbol id="dp-icon-nav-project" viewBox="0 0 16 16" fill="none" stroke="currentColor" stroke-width="1.5" stroke-linecap="round" stroke-linejoin="round"><path d="M3 4.5h10v8H3z"/><path d="M3 7h10M6.5 4.5v8"/></symbol>
  <symbol id="dp-icon-nav-docs" viewBox="0 0 16 16" fill="none" stroke="currentColor" stroke-width="1.5" stroke-linecap="round" stroke-linejoin="round"><path d="M4 2.5h5.5L12.5 5.5V13.5H4z"/><path d="M9.5 2.5V5.5H12.5"/><path d="M6 8h4M6 10.5h4"/></symbol>
  <symbol id="dp-icon-nav-book" viewBox="0 0 16 16" fill="none" stroke="currentColor" stroke-width="1.5" stroke-linecap="round" stroke-linejoin="round"><path d="M3.5 3.5h4v10h-4a1 1 0 0 1-1-1v-8a1 1 0 0 1 1-1zm5 0h4a1 1 0 0 1 1 1v8a1 1 0 0 1-1 1h-4z"/></symbol>
  <symbol id="dp-icon-nav-read" viewBox="0 0 16 16" fill="none" stroke="currentColor" stroke-width="1.5" stroke-linecap="round" stroke-linejoin="round"><path d="M2.5 4.5h4.5A2 2 0 0 1 9 6.5v6H5a2.5 2.5 0 0 1-2.5-2.5zm11 0H9A2 2 0 0 0 7 6.5v6h4a2.5 2.5 0 0 0 2.5-2.5z"/></symbol>
  <symbol id="dp-icon-nav-settings" viewBox="0 0 16 16" fill="none" stroke="currentColor" stroke-width="1.5" stroke-linecap="round" stroke-linejoin="round"><circle cx="8" cy="8" r="2.2"/><path d="M8 2.5v1.2M8 12.3v1.2M2.5 8h1.2M12.3 8h1.2M4.1 4.1l.85.85M11.05 11.05l.85.85M4.1 11.9l.85-.85M11.05 4.95l.85-.85"/></symbol>
  <symbol id="dp-icon-nav-tool" viewBox="0 0 16 16" fill="none" stroke="currentColor" stroke-width="1.5" stroke-linecap="round" stroke-linejoin="round"><path d="M10.5 3.5a2.5 2.5 0 0 0-3.2 3.2L3.5 10.5 5.5 12.5l3.8-3.8a2.5 2.5 0 0 0 3.2-3.2L10.5 7.5z"/></symbol>
  <symbol id="dp-icon-nav-control" viewBox="0 0 16 16" fill="none" stroke="currentColor" stroke-width="1.5" stroke-linecap="round" stroke-linejoin="round"><rect x="2.5" y="3" width="11" height="10" rx="1"/><circle cx="6" cy="8" r="1.5"/><path d="M8 8h3.5"/></symbol>
  <symbol id="dp-icon-action-add" viewBox="0 0 16 16" fill="none" stroke="currentColor" stroke-width="1.5" stroke-linecap="round" stroke-linejoin="round"><path d="M8 3.5v9M3.5 8h9"/></symbol>
  <symbol id="dp-icon-action-search" viewBox="0 0 16 16" fill="none" stroke="currentColor" stroke-width="1.5" stroke-linecap="round" stroke-linejoin="round"><circle cx="7" cy="7" r="3.5"/><path d="m10 10 3 3"/></symbol>
  <symbol id="dp-icon-action-filter" viewBox="0 0 16 16" fill="none" stroke="currentColor" stroke-width="1.5" stroke-linecap="round" stroke-linejoin="round"><path d="M3 4h10L9.5 8.5V12l-3 1.5V8.5z"/></symbol>
  <symbol id="dp-icon-action-save" viewBox="0 0 16 16" fill="none" stroke="currentColor" stroke-width="1.5" stroke-linecap="round" stroke-linejoin="round"><path d="M3.5 3.5h7.5L12.5 5v7.5h-9z"/><path d="M5.5 3.5v3h5v-3M5.5 12.5v-4h5v4"/></symbol>
  <symbol id="dp-icon-action-share" viewBox="0 0 16 16" fill="none" stroke="currentColor" stroke-width="1.5" stroke-linecap="round" stroke-linejoin="round"><circle cx="12" cy="4" r="1.5"/><circle cx="4" cy="8" r="1.5"/><circle cx="12" cy="12" r="1.5"/><path d="m5.3 7.3 5.4-2.6M5.3 8.7l5.4 2.6"/></symbol>
  <symbol id="dp-icon-action-download" viewBox="0 0 16 16" fill="none" stroke="currentColor" stroke-width="1.5" stroke-linecap="round" stroke-linejoin="round"><path d="M8 3v7.5M5 8l3 3 3-3M3.5 12.5h9"/></symbol>
  <symbol id="dp-icon-action-upload" viewBox="0 0 16 16" fill="none" stroke="currentColor" stroke-width="1.5" stroke-linecap="round" stroke-linejoin="round"><path d="M8 11.5V4M5 7l3-3 3 3M3.5 12.5h9"/></symbol>
  <symbol id="dp-icon-action-import" viewBox="0 0 16 16" fill="none" stroke="currentColor" stroke-width="1.5" stroke-linecap="round" stroke-linejoin="round"><path d="M8 2.5v7M5.5 7 8 9.5 10.5 7M3.5 12.5h9"/></symbol>
  <symbol id="dp-icon-action-export" viewBox="0 0 16 16" fill="none" stroke="currentColor" stroke-width="1.5" stroke-linecap="round" stroke-linejoin="round"><path d="M8 9.5v-7M5.5 5 8 2.5 10.5 5M3.5 12.5h9"/></symbol>
  <symbol id="dp-icon-action-print" viewBox="0 0 16 16" fill="none" stroke="currentColor" stroke-width="1.5" stroke-linecap="round" stroke-linejoin="round"><path d="M4.5 6V3.5h7V6"/><rect x="3" y="6" width="10" height="5.5" rx="1"/><path d="M5 11.5h6V14H5z"/></symbol>
  <symbol id="dp-icon-action-refresh" viewBox="0 0 16 16" fill="none" stroke="currentColor" stroke-width="1.5" stroke-linecap="round" stroke-linejoin="round"><path d="M12.5 8A4.5 4.5 0 1 1 10 4.2"/><path d="M12.5 3.5V6.5H9.5"/></symbol>
  <symbol id="dp-icon-action-sync" viewBox="0 0 16 16" fill="none" stroke="currentColor" stroke-width="1.5" stroke-linecap="round" stroke-linejoin="round"><path d="M4.5 6.5A4 4 0 0 1 11 5"/><path d="M11.5 3v2.5H9"/><path d="M11.5 9.5A4 4 0 0 1 5 11"/><path d="M4.5 13v-2.5H7"/></symbol>
  <symbol id="dp-icon-action-reload" viewBox="0 0 16 16" fill="none" stroke="currentColor" stroke-width="1.5" stroke-linecap="round" stroke-linejoin="round"><path d="M3.5 8a4.5 4.5 0 1 0 1.5-3.3"/><path d="M3.5 3.5V6H6"/></symbol>
  <symbol id="dp-icon-action-link" viewBox="0 0 16 16" fill="none" stroke="currentColor" stroke-width="1.5" stroke-linecap="round" stroke-linejoin="round"><path d="M7 9.5a2.5 2.5 0 0 0 3.5 0l2-2a2.5 2.5 0 0 0-3.5-3.5l-1 1"/><path d="M9 6.5a2.5 2.5 0 0 0-3.5 0l-2 2a2.5 2.5 0 1 0 3.5 3.5l1-1"/></symbol>
  <symbol id="dp-icon-action-unlink" viewBox="0 0 16 16" fill="none" stroke="currentColor" stroke-width="1.5" stroke-linecap="round" stroke-linejoin="round"><path d="M7 9.5a2.5 2.5 0 0 0 3.5 0l1.2-1.2M9 6.5a2.5 2.5 0 0 0-3.5 0L4.3 7.7"/><path d="m3.5 3.5 9 9"/></symbol>
  <symbol id="dp-icon-action-attach" viewBox="0 0 16 16" fill="none" stroke="currentColor" stroke-width="1.5" stroke-linecap="round" stroke-linejoin="round"><path d="M10.5 6.5 6 11a2 2 0 1 1-2.8-2.8l5.5-5.5a2.5 2.5 0 0 1 3.5 3.5L7.5 11.5"/></symbol>
  <symbol id="dp-icon-action-eye" viewBox="0 0 16 16" fill="none" stroke="currentColor" stroke-width="1.5" stroke-linecap="round" stroke-linejoin="round"><path d="M2.5 8S5 4.5 8 4.5 13.5 8 13.5 8 11 11.5 8 11.5 2.5 8 2.5 8z"/><circle cx="8" cy="8" r="1.8"/></symbol>
  <symbol id="dp-icon-action-eye-off" viewBox="0 0 16 16" fill="none" stroke="currentColor" stroke-width="1.5" stroke-linecap="round" stroke-linejoin="round"><path d="m3 3 10 10M6.1 6.2A2 2 0 0 0 8 10.5"/><path d="M4.2 4.8C3.2 5.6 2.5 8 2.5 8S5 11.5 8 11.5c1 0 1.9-.3 2.7-.7M9.8 5.1A4 4 0 0 1 13.5 8s-.6 1.2-1.6 2.1"/></symbol>
  <symbol id="dp-icon-action-lock" viewBox="0 0 16 16" fill="none" stroke="currentColor" stroke-width="1.5" stroke-linecap="round" stroke-linejoin="round"><rect x="4" y="7" width="8" height="6.5" rx="1"/><path d="M6 7V5.5a2 2 0 0 1 4 0V7"/></symbol>
  <symbol id="dp-icon-action-unlock" viewBox="0 0 16 16" fill="none" stroke="currentColor" stroke-width="1.5" stroke-linecap="round" stroke-linejoin="round"><rect x="4" y="7" width="8" height="6.5" rx="1"/><path d="M6 7V5.5a2 2 0 0 1 3.7-1"/></symbol>
  <symbol id="dp-icon-action-key" viewBox="0 0 16 16" fill="none" stroke="currentColor" stroke-width="1.5" stroke-linecap="round" stroke-linejoin="round"><circle cx="5.5" cy="8" r="2.5"/><path d="M7.5 8h6v2M11 8v2"/></symbol>
  <symbol id="dp-icon-action-star" viewBox="0 0 16 16" fill="none" stroke="currentColor" stroke-width="1.5" stroke-linecap="round" stroke-linejoin="round"><path d="m8 2.5 1.6 3.3 3.6.5-2.6 2.5.6 3.6L8 10.7l-3.2 1.7.6-3.6L2.8 6.3l3.6-.5z"/></symbol>
  <symbol id="dp-icon-action-heart" viewBox="0 0 16 16" fill="none" stroke="currentColor" stroke-width="1.5" stroke-linecap="round" stroke-linejoin="round"><path d="M8 13s-5-3.2-5-6.2A2.8 2.8 0 0 1 8 5a2.8 2.8 0 0 1 5 1.8C13 9.8 8 13 8 13z"/></symbol>
  <symbol id="dp-icon-action-flag" viewBox="0 0 16 16" fill="none" stroke="currentColor" stroke-width="1.5" stroke-linecap="round" stroke-linejoin="round"><path d="M4 13.5V3.5h7l-1.5 2.5L11 8.5H4"/></symbol>
  <symbol id="dp-icon-action-tag" viewBox="0 0 16 16" fill="none" stroke="currentColor" stroke-width="1.5" stroke-linecap="round" stroke-linejoin="round"><path d="M3 8.5V3.5h5L13 9l-4 4z"/><circle cx="6" cy="6" r=".8" fill="currentColor" stroke="none"/></symbol>
  <symbol id="dp-icon-action-tags" viewBox="0 0 16 16" fill="none" stroke="currentColor" stroke-width="1.5" stroke-linecap="round" stroke-linejoin="round"><path d="M2.5 8V3.5H7L11.5 8l-3.5 3.5z"/><path d="M7.5 3.5H11L14.5 7l-3 3"/><circle cx="5" cy="5.5" r=".7" fill="currentColor" stroke="none"/></symbol>
  <symbol id="dp-icon-action-more" viewBox="0 0 16 16" fill="none" stroke="currentColor" stroke-width="1.5" stroke-linecap="round" stroke-linejoin="round"><circle cx="4" cy="8" r=".8" fill="currentColor" stroke="none"/><circle cx="8" cy="8" r=".8" fill="currentColor" stroke="none"/><circle cx="12" cy="8" r=".8" fill="currentColor" stroke="none"/></symbol>
  <symbol id="dp-icon-action-more-vertical" viewBox="0 0 16 16" fill="none" stroke="currentColor" stroke-width="1.5" stroke-linecap="round" stroke-linejoin="round"><circle cx="8" cy="4" r=".8" fill="currentColor" stroke="none"/><circle cx="8" cy="8" r=".8" fill="currentColor" stroke="none"/><circle cx="8" cy="12" r=".8" fill="currentColor" stroke="none"/></symbol>
  <symbol id="dp-icon-action-drag" viewBox="0 0 16 16" fill="none" stroke="currentColor" stroke-width="1.5" stroke-linecap="round" stroke-linejoin="round"><circle cx="6" cy="4" r=".7" fill="currentColor" stroke="none"/><circle cx="10" cy="4" r=".7" fill="currentColor" stroke="none"/><circle cx="6" cy="8" r=".7" fill="currentColor" stroke="none"/><circle cx="10" cy="8" r=".7" fill="currentColor" stroke="none"/><circle cx="6" cy="12" r=".7" fill="currentColor" stroke="none"/><circle cx="10" cy="12" r=".7" fill="currentColor" stroke="none"/></symbol>
  <symbol id="dp-icon-action-pushpin" viewBox="0 0 16 16" fill="none" stroke="currentColor" stroke-width="1.5" stroke-linecap="round" stroke-linejoin="round"><path d="M8 13.5V9.5M5 4.5h6l-1 3.5H6z"/><path d="M6 4.5V3h4v1.5"/></symbol>
  <symbol id="dp-icon-action-zoom-in" viewBox="0 0 16 16" fill="none" stroke="currentColor" stroke-width="1.5" stroke-linecap="round" stroke-linejoin="round"><circle cx="7" cy="7" r="3.5"/><path d="m10 10 3 3M7 5.5v3M5.5 7h3"/></symbol>
  <symbol id="dp-icon-action-zoom-out" viewBox="0 0 16 16" fill="none" stroke="currentColor" stroke-width="1.5" stroke-linecap="round" stroke-linejoin="round"><circle cx="7" cy="7" r="3.5"/><path d="m10 10 3 3M5.5 7h3"/></symbol>
  <symbol id="dp-icon-action-play" viewBox="0 0 16 16" fill="none" stroke="currentColor" stroke-width="1.5" stroke-linecap="round" stroke-linejoin="round"><path d="m5 3.5 8 4.5-8 4.5z"/></symbol>
  <symbol id="dp-icon-action-pause" viewBox="0 0 16 16" fill="none" stroke="currentColor" stroke-width="1.5" stroke-linecap="round" stroke-linejoin="round"><path d="M5 3.5h2.5v9H5zm3.5 0H11v9H8.5z"/></symbol>
  <symbol id="dp-icon-action-camera" viewBox="0 0 16 16" fill="none" stroke="currentColor" stroke-width="1.5" stroke-linecap="round" stroke-linejoin="round"><path d="M3 5.5h2l1-1.5h4l1 1.5h2v7H3z"/><circle cx="8" cy="8.5" r="2"/></symbol>
  <symbol id="dp-icon-action-clear" viewBox="0 0 16 16" fill="none" stroke="currentColor" stroke-width="1.5" stroke-linecap="round" stroke-linejoin="round"><circle cx="8" cy="8" r="5.5"/><path d="m6 6 4 4M10 6l-4 4"/></symbol>
  <symbol id="dp-icon-action-sort-ascending" viewBox="0 0 16 16" fill="none" stroke="currentColor" stroke-width="1.5" stroke-linecap="round" stroke-linejoin="round"><path d="M4 4.5h5M4 8h3.5M4 11.5h2M10.5 4v8M9 10.5l1.5 1.5 1.5-1.5"/></symbol>
  <symbol id="dp-icon-action-sort-descending" viewBox="0 0 16 16" fill="none" stroke="currentColor" stroke-width="1.5" stroke-linecap="round" stroke-linejoin="round"><path d="M4 4.5h2M4 8h3.5M4 11.5h5M10.5 4v8M9 5.5 11.5 4 13 5.5"/></symbol>
  <symbol id="dp-icon-user-user" viewBox="0 0 16 16" fill="none" stroke="currentColor" stroke-width="1.5" stroke-linecap="round" stroke-linejoin="round"><circle cx="8" cy="5.5" r="2.3"/><path d="M3.5 13.5c0-2.5 2-4 4.5-4s4.5 1.5 4.5 4"/></symbol>
  <symbol id="dp-icon-user-user-add" viewBox="0 0 16 16" fill="none" stroke="currentColor" stroke-width="1.5" stroke-linecap="round" stroke-linejoin="round"><circle cx="7" cy="5.5" r="2.2"/><path d="M2.5 13.5c0-2.3 1.8-3.7 4-3.8M11 8v4M9 10h4"/></symbol>
  <symbol id="dp-icon-user-team" viewBox="0 0 16 16" fill="none" stroke="currentColor" stroke-width="1.5" stroke-linecap="round" stroke-linejoin="round"><circle cx="6" cy="5.5" r="2"/><circle cx="11" cy="6" r="1.6"/><path d="M2.5 13c0-2 1.6-3.2 3.5-3.2S9.5 11 9.5 13M9.2 10.2c.7-.4 1.5-.6 2.3-.6 1.5 0 2.8.9 2.8 2.4"/></symbol>
  <symbol id="dp-icon-comm-bell" viewBox="0 0 16 16" fill="none" stroke="currentColor" stroke-width="1.5" stroke-linecap="round" stroke-linejoin="round"><path d="M4.5 10.5V7.5a3.5 3.5 0 0 1 7 0v3l1 1.5H3.5z"/><path d="M7 13a1 1 0 0 0 2 0"/></symbol>
  <symbol id="dp-icon-comm-mail" viewBox="0 0 16 16" fill="none" stroke="currentColor" stroke-width="1.5" stroke-linecap="round" stroke-linejoin="round"><rect x="2.5" y="4" width="11" height="8" rx="1"/><path d="m3 5 5 3.5L13 5"/></symbol>
  <symbol id="dp-icon-comm-message" viewBox="0 0 16 16" fill="none" stroke="currentColor" stroke-width="1.5" stroke-linecap="round" stroke-linejoin="round"><path d="M3 3.5h10v7.5H7L4 13v-2H3z"/></symbol>
  <symbol id="dp-icon-comm-comment" viewBox="0 0 16 16" fill="none" stroke="currentColor" stroke-width="1.5" stroke-linecap="round" stroke-linejoin="round"><path d="M3 3.5h10v7H8l-2.5 2v-2H3z"/><path d="M5.5 7h5M5.5 9h3"/></symbol>
  <symbol id="dp-icon-comm-phone" viewBox="0 0 16 16" fill="none" stroke="currentColor" stroke-width="1.5" stroke-linecap="round" stroke-linejoin="round"><path d="M4 3.5h2.5l1 2.5-1.5 1a6 6 0 0 0 3 3l1-1.5 2.5 1V12a1 1 0 0 1-1 1A8.5 8.5 0 0 1 3 4.5a1 1 0 0 1 1-1z"/></symbol>
  <symbol id="dp-icon-comm-notification" viewBox="0 0 16 16" fill="none" stroke="currentColor" stroke-width="1.5" stroke-linecap="round" stroke-linejoin="round"><path d="M4.5 10.5V7.5a3.5 3.5 0 0 1 7 0v3l1 1.5H3.5z"/><path d="M7 13a1 1 0 0 0 2 0"/><circle cx="12" cy="4" r="1.3" fill="currentColor" stroke="none"/></symbol>
  <symbol id="dp-icon-time-calendar" viewBox="0 0 16 16" fill="none" stroke="currentColor" stroke-width="1.5" stroke-linecap="round" stroke-linejoin="round"><rect x="2.5" y="4" width="11" height="9.5" rx="1"/><path d="M2.5 7h11M5.5 2.5v3M10.5 2.5v3"/></symbol>
  <symbol id="dp-icon-time-history" viewBox="0 0 16 16" fill="none" stroke="currentColor" stroke-width="1.5" stroke-linecap="round" stroke-linejoin="round"><circle cx="8" cy="8.5" r="4.5"/><path d="M8 6v3l2 1M5 3.5h3V2"/></symbol>
  <symbol id="dp-icon-time-schedule" viewBox="0 0 16 16" fill="none" stroke="currentColor" stroke-width="1.5" stroke-linecap="round" stroke-linejoin="round"><circle cx="8" cy="8.5" r="4.5"/><path d="M8 5.5V8l2 1.5M5.5 2.5h5"/></symbol>
  <symbol id="dp-icon-time-sun" viewBox="0 0 16 16" fill="none" stroke="currentColor" stroke-width="1.5" stroke-linecap="round" stroke-linejoin="round"><circle cx="8" cy="8" r="2.5"/><path d="M8 2v1.5M8 12.5V14M2 8h1.5M12.5 8H14M3.8 3.8l1.1 1.1M11.1 11.1l1.1 1.1M3.8 12.2l1.1-1.1M11.1 4.9l1.1-1.1"/></symbol>
  <symbol id="dp-icon-time-moon" viewBox="0 0 16 16" fill="none" stroke="currentColor" stroke-width="1.5" stroke-linecap="round" stroke-linejoin="round"><path d="M12.8 10.2A5.5 5.5 0 0 1 6.2 3.5 5.5 5.5 0 1 0 12.8 10.2z"/></symbol>
  <symbol id="dp-icon-app-location" viewBox="0 0 16 16" fill="none" stroke="currentColor" stroke-width="1.5" stroke-linecap="round" stroke-linejoin="round"><path d="M8 13.5s-4.5-3.5-4.5-6.5a4.5 4.5 0 1 1 9 0c0 3-4.5 6.5-4.5 6.5z"/><circle cx="8" cy="7" r="1.5"/></symbol>
  <symbol id="dp-icon-app-global" viewBox="0 0 16 16" fill="none" stroke="currentColor" stroke-width="1.5" stroke-linecap="round" stroke-linejoin="round"><circle cx="8" cy="8" r="5.5"/><path d="M2.5 8h11M8 2.5c1.8 1.8 2.7 3.6 2.7 5.5S9.8 11.7 8 13.5C6.2 11.7 5.3 9.9 5.3 8S6.2 4.3 8 2.5z"/></symbol>
  <symbol id="dp-icon-app-shop" viewBox="0 0 16 16" fill="none" stroke="currentColor" stroke-width="1.5" stroke-linecap="round" stroke-linejoin="round"><path d="M3 6.5h10l-1 7H4z"/><path d="M5.5 6.5V5a2.5 2.5 0 0 1 5 0v1.5"/></symbol>
  <symbol id="dp-icon-app-gift" viewBox="0 0 16 16" fill="none" stroke="currentColor" stroke-width="1.5" stroke-linecap="round" stroke-linejoin="round"><rect x="3" y="7" width="10" height="6.5" rx="1"/><path d="M2.5 7h11v-1.5H2.5zM8 5.5v8M6 3.5c0-1 1-1.5 2-1.5s1.5.8 1.5 1.5S8 5.5 8 5.5 6 4.5 6 3.5z"/></symbol>
  <symbol id="dp-icon-app-trophy" viewBox="0 0 16 16" fill="none" stroke="currentColor" stroke-width="1.5" stroke-linecap="round" stroke-linejoin="round"><path d="M5 9.5V13h6V9.5"/><path d="M5 3.5h6v4a3 3 0 0 1-6 0z"/><path d="M5 5H3v1a2 2 0 0 0 2 2M11 5h2v1a2 2 0 0 1-2 2"/></symbol>
  <symbol id="dp-icon-app-bulb" viewBox="0 0 16 16" fill="none" stroke="currentColor" stroke-width="1.5" stroke-linecap="round" stroke-linejoin="round"><path d="M6.5 12.5h3M7 14h2"/><path d="M8 2.5a4 4 0 0 1 2.5 7.1V11h-5V9.6A4 4 0 0 1 8 2.5z"/></symbol>
  <symbol id="dp-icon-app-power" viewBox="0 0 16 16" fill="none" stroke="currentColor" stroke-width="1.5" stroke-linecap="round" stroke-linejoin="round"><path d="M8 2.5v5"/><path d="M5.2 4.5a4.5 4.5 0 1 0 5.6 0"/></symbol>
  <symbol id="dp-icon-app-desktop" viewBox="0 0 16 16" fill="none" stroke="currentColor" stroke-width="1.5" stroke-linecap="round" stroke-linejoin="round"><rect x="2.5" y="3" width="11" height="7.5" rx="1"/><path d="M6 13h4M8 10.5V13"/></symbol>
  <symbol id="dp-icon-app-mobile" viewBox="0 0 16 16" fill="none" stroke="currentColor" stroke-width="1.5" stroke-linecap="round" stroke-linejoin="round"><rect x="5" y="2.5" width="6" height="11" rx="1"/><path d="M7.5 11.5h1"/></symbol>
  <symbol id="dp-icon-app-wifi" viewBox="0 0 16 16" fill="none" stroke="currentColor" stroke-width="1.5" stroke-linecap="round" stroke-linejoin="round"><path d="M3 7a7 7 0 0 1 10 0M5 9a4.2 4.2 0 0 1 6 0"/><circle cx="8" cy="12" r=".9" fill="currentColor" stroke="none"/></symbol>
  <symbol id="dp-icon-app-environment" viewBox="0 0 16 16" fill="none" stroke="currentColor" stroke-width="1.5" stroke-linecap="round" stroke-linejoin="round"><path d="M3 12.5c2-4 3-7.5 5-9.5 2 2 3 5.5 5 9.5z"/><path d="M5.5 12.5h5"/></symbol>
  <symbol id="dp-icon-science-molecule" viewBox="0 0 16 16" fill="none" stroke="currentColor" stroke-width="1.5" stroke-linecap="round" stroke-linejoin="round"><circle cx="4" cy="5" r="1.5"/><circle cx="12" cy="5" r="1.5"/><circle cx="8" cy="11.5" r="1.5"/><path d="m5.3 5.8 2 4M10.7 5.8l-2 4M5.5 5h5"/></symbol>
  <symbol id="dp-icon-science-atom" viewBox="0 0 16 16" fill="none" stroke="currentColor" stroke-width="1.5" stroke-linecap="round" stroke-linejoin="round"><circle cx="8" cy="8" r="1.2"/><ellipse cx="8" cy="8" rx="6" ry="2.5" transform="rotate(60 8 8)"/><ellipse cx="8" cy="8" rx="6" ry="2.5" transform="rotate(-60 8 8)"/><ellipse cx="8" cy="8" rx="6" ry="2.5"/></symbol>
  <symbol id="dp-icon-science-flask" viewBox="0 0 16 16" fill="none" stroke="currentColor" stroke-width="1.5" stroke-linecap="round" stroke-linejoin="round"><path d="M6 2.5h4M7 2.5v4L4.5 12.5h7L9 6.5v-4"/><path d="M5.5 10h5"/></symbol>
  <symbol id="dp-icon-science-experiment" viewBox="0 0 16 16" fill="none" stroke="currentColor" stroke-width="1.5" stroke-linecap="round" stroke-linejoin="round"><path d="M5 3.5h6v2l2 6.5H3l2-6.5z"/><path d="M6.5 3.5v2M9.5 3.5v2"/></symbol>
  <symbol id="dp-icon-science-compute" viewBox="0 0 16 16" fill="none" stroke="currentColor" stroke-width="1.5" stroke-linecap="round" stroke-linejoin="round"><rect x="2.5" y="3" width="11" height="8" rx="1"/><path d="M5 13h6M8 11v2M5.5 6h1M7.5 6h1M9.5 6h1M5.5 8h5"/></symbol>
  <symbol id="dp-icon-science-lab" viewBox="0 0 16 16" fill="none" stroke="currentColor" stroke-width="1.5" stroke-linecap="round" stroke-linejoin="round"><path d="M4 3.5h3v4L4.5 12.5h7L9 7.5v-4h3"/><path d="M5.5 10h5"/></symbol>
  <symbol id="dp-icon-science-dna" viewBox="0 0 16 16" fill="none" stroke="currentColor" stroke-width="1.5" stroke-linecap="round" stroke-linejoin="round"><path d="M5 3c2 2 4 2 6 0M5 8c2 2 4 2 6 0M5 13c2 2 4 2 6 0"/><path d="M5 3c2 2 4 2 6 0" transform="translate(0 2.5)"/><path d="M11 5.5c-2 2-4 2-6 0M11 10.5c-2 2-4 2-6 0"/></symbol>
<symbol id="dp-icon-action-edit" viewBox="0 0 16 16"><path d="M9.5 3.5 12.5 6.5 6 13H3v-3z"/><path d="m8 5 3 3"/></symbol>
<symbol id="dp-icon-action-delete" viewBox="0 0 16 16"><path d="M3.5 5h9M6 5V3.5h4V5M5.5 5v7.5h5V5"/></symbol>
<symbol id="dp-icon-action-copy" viewBox="0 0 16 16"><rect x="5.5" y="5.5" width="7" height="8" rx="1"/><path d="M3.5 10.5V3.5h7"/></symbol>
</svg>
